<svg aria-hidden="true" style="position:absolute;width:0;height:0" xmlns="http://www.w3.org/2000/svg" overflow="hidden"><defs><symbol id="icon-adobephotoshop" viewBox="0 0 32 32"><path fill="var(--color1, #00c8ff)" d="M0 .4v31.2h32V.4zm1.333 1.333h29.333v28.533H1.333zm6.4 5.974c0-.089.187-.155.299-.155a73.618 73.618 0 013.437-.067c3.696 0 5.133 2.027 5.133 4.621 0 3.387-2.456 4.84-5.469 4.84-.507 0-.68-.023-1.033-.023v5.123c0 .111-.044.155-.153.155H7.888c-.111 0-.153-.04-.153-.151zm2.367 7.082c.307.021.549.021 1.08.021 1.56 0 3.027-.549 3.027-2.661 0-1.693-1.048-2.552-2.829-2.552-.528 0-1.033.021-1.276.044zm11.476-1.584c-1.056 0-1.408.528-1.408.968 0 .484.24.813 1.649 1.54 2.091 1.013 2.749 1.98 2.749 3.409 0 2.133-1.627 3.28-3.827 3.28-1.168 0-2.16-.244-2.733-.573-.087-.044-.107-.109-.107-.22v-1.956c0-.133.064-.177.152-.112a4.91 4.91 0 002.683.792c1.056 0 1.496-.44 1.496-1.035 0-.484-.307-.903-1.649-1.607-1.893-.907-2.685-1.827-2.685-3.369 0-1.716 1.341-3.147 3.673-3.147 1.147 0 1.952.176 2.392.373.109.067.133.176.133.264v1.827c0 .111-.067.177-.2.133-.592-.352-1.467-.573-2.319-.568z"/></symbol><symbol id="icon-gulp" viewBox="0 0 32 32"><path fill="var(--color2, #da4648)" d="M20.208 25.909l.848-1.445s-1.925.788-5.147.788c-3.224 0-5.12-.757-5.12-.757l.948 1.577.336 4.972c0 .537 1.752.957 3.915.957 2.164 0 3.917-.419 3.917-.957l.305-5.113zm.82-9.394c-1.025.061-1.537 1.204-2.052 2.407-.191.44-.84 2.316-1.264 2.084-.424-.231.551-1.772.825-2.689-.316.232-1.473 1.132-1.772.287-.477.419-1.505.64-1.389-.439-.255.46-.828 1.097-1.519.819-.897-.34.527-3.215.88-3.076.355.161-.071.8-.181 1.059-.248.559-.531 1.277-.34 1.417.32.259 1.205-.937 1.225-.959.165-.22.639-1.639 1.017-1.476.38.179-.948 2.055-.453 2.435.101.08.511-.04.759-.319.16-.16.104-.56.639-1.837.539-1.279 1.019-2.875 1.385-2.755s.065.937-.068 1.257c-.619 1.437-1.691 3.792-1.187 3.613.499-.18.759-.18 1.257-.759s.46-1.536.799-1.516c.32.019.28.339.2.557.32-.36 1.536-1.157 1.817-.379.339.917-1.739 2.256-1.219 2.176.5-.06 1.317-.579 1.677-1.057l.959-8.667s-.979.8-7.148.8-7.045-.779-7.045-.779l.817 7.907c.44-1.237 1.477-3.752 3.096-3.653.739.04 1.737 1.479.877 1.519-.36.02-.4-.719-.819-.819-.319-.061-.739.18-1.017.46-.539.539-1.739 2.675-1.579 3.735.2 1.357 1.876-.461 2.156-1 .199-.377.339-1.517.757-1.397.44.12-.039 1.299-.36 2.316-.36 1.159-.539 2.375-.976 2.235-.44-.139.279-1.636.237-1.896-.417.399-1.177 1.36-2.175.879l.499 4.932s1.359 1.057 5.431 1.057 5.491-1.057 5.491-1.057l.639-5.711c-.519.52-2.156 1.417-2.256.4-.079-.819 1.777-1.997 1.299-2.019zm2.1-15.623l-3.545 3.733-.648 2.535c2.508.16 4.252.515 4.252.925 0 .559-3.219 1.009-7.188 1.009s-7.187-.457-7.187-1.017c0-.559 3.219-1.019 7.188-1.019.564 0 1.125 0 1.685.021l.748-3.035L22.2.051c.091-.12.373-.02.632.2.259.199.399.459.319.579v.04zm-5.112 7.727s-.697 0-.813-.107a.187.187 0 01-.048-.12c0-.077.052-.121.12-.147l.059.1c-.028.008-.039.02-.044.031 0 .055.419.092.74.088.319-.004.708-.031.711-.085 0-.016-.031-.031-.081-.044l.06-.096c.084.027.156.077.156.161 0 .147-.188.171-.307.188-.143.02-.549.031-.549.031z"/></symbol><symbol id="icon-sass" viewBox="0 0 32 32"><path fill="var(--color3, #c69)" d="M16 0c8.836 0 16 7.164 16 16s-7.164 16-16 16S0 24.836 0 16 7.164 0 16 0zm-3.18 21.331c.233.86.208 1.664-.032 2.389l-.087.24c-.032.081-.069.16-.104.235a4.492 4.492 0 01-.74 1.08c-.931 1.012-2.229 1.396-2.787 1.073-.6-.349-.301-1.78.779-2.92 1.161-1.224 2.827-2.012 2.827-2.012v-.004zM26.035 6.849c-.723-2.844-5.436-3.779-9.896-2.193-2.652.943-5.525 2.424-7.591 4.356-2.457 2.295-2.848 4.295-2.687 5.131.569 2.948 4.609 4.876 6.271 6.307v.008c-.489.24-4.075 2.039-4.915 3.9-.9 1.96.14 3.361.82 3.54 2.1.581 4.26-.48 5.42-2.199 1.12-1.681 1.021-3.841.539-4.901.661-.18 1.44-.26 2.44-.139 2.801.32 3.361 2.08 3.24 2.8-.12.719-.697 1.139-.899 1.259-.2.121-.26.16-.241.241.02.12.121.12.28.1.22-.04 1.461-.6 1.521-1.961.06-1.72-1.581-3.639-4.5-3.6-1.2.021-1.961.121-2.5.341a.479.479 0 00-.14-.14c-1.8-1.94-5.14-3.3-5-5.88.04-.94.38-3.419 6.4-6.419 4.94-2.461 8.881-1.78 9.561-.28.977 2.139-2.101 6.12-7.241 6.699-1.96.22-2.98-.539-3.241-.82-.279-.3-.319-.32-.419-.259-.16.08-.06.34 0 .5.16.4.78 1.1 1.861 1.46.939.3 3.24.479 6-.6 3.099-1.199 5.519-4.54 4.819-7.34z"/></symbol><symbol id="icon-jquery" viewBox="0 0 32 32"><path fill="var(--color4, #0769ad)" d="M2.045 7.832c-2.831 4.067-2.48 9.356-.316 13.675.049.105.104.205.157.305.031.069.065.133.103.199.017.037.041.076.063.111.035.069.072.136.108.203l.209.353c.039.065.076.129.12.195.073.125.16.249.236.375.035.052.067.104.105.156.148.232.284.425.428.612l-.015-.02c.104.143.208.281.32.42.036.051.076.101.113.152l.295.359c.036.041.072.089.111.132.131.157.269.311.408.465 0 .003.004.005.007.009.172.217.358.409.56.582l.006.005c.107.109.213.219.327.325l.135.129c.148.139.296.277.452.411.003 0 .004.003.007.004l.076.067c.136.119.273.237.413.347l.167.14c.113.091.231.177.347.267l.181.139c.124.093.256.185.383.276.047.033.093.067.141.097l.039.031.375.247.16.107c.196.125.391.244.584.361.056.028.112.059.164.091.144.083.293.167.439.244.08.045.163.084.245.125.1.056.204.111.311.167a.387.387 0 01.077.032l-.002-.001c.044.02.085.041.128.063.16.08.327.156.5.232.032.013.067.027.101.045.192.084.384.164.583.243.045.013.093.036.14.053.18.068.365.137.548.203l.067.024c.204.069.405.136.612.2.048.013.097.031.148.044.212.064.417.14.631.181 13.68 2.493 17.656-8.225 17.656-8.225-3.34 4.349-9.267 5.496-14.88 4.22-.208-.048-.416-.115-.625-.176a14.64 14.64 0 01-.882-.28l.126.039-.083-.032c-.181-.061-.356-.129-.533-.197a1.738 1.738 0 00-.132-.05l-.015-.004c-.196-.079-.387-.16-.576-.244-.041-.013-.076-.032-.117-.048a16.54 16.54 0 01-.665-.308l.184.081c-.049-.021-.093-.044-.141-.069a10.022 10.022 0 01-.373-.189 4.225 4.225 0 01-.276-.142l.027.014c-.151-.08-.301-.167-.452-.249-.045-.032-.097-.059-.149-.088a17.928 17.928 0 01-.668-.409l.084.05a2.925 2.925 0 01-.165-.111l.008.006a7.671 7.671 0 01-.44-.291l.024.017c-.047-.031-.089-.064-.137-.097-.17-.118-.298-.211-.424-.306l.032.023c-.056-.045-.116-.088-.176-.133-.117-.092-.236-.18-.353-.277l-.157-.125c-.174-.14-.319-.263-.461-.388l.016.013A.356.356 0 008.771 23l-.001-.001-.463-.421-.133-.125c-.109-.111-.221-.217-.333-.327l-.129-.133a12.33 12.33 0 01-.404-.421l-.008-.009-.02-.021a23.788 23.788 0 01-.417-.472c-.036-.041-.069-.085-.107-.129l-.301-.369a20.463 20.463 0 01-.4-.522l-.054-.075C2.888 15.724 1.761 9.858 4.253 5.046zm8.783-3.425c-2.052 2.945-1.936 6.884-.339 9.999.296.584.596 1.078.928 1.547l-.025-.038c.307.44.645.96 1.056 1.315a8.9 8.9 0 00.459.479l.12.12c.152.147.308.291.467.433l.02.017c.16.141.34.29.524.435l.028.021c.045.031.084.067.128.097.187.144.375.283.569.42l.02.012c.083.06.171.115.264.173.037.024.08.056.12.08.141.091.28.176.423.263.023.009.043.021.064.031.12.073.251.144.376.209.044.027.087.047.132.072.089.044.177.091.263.136l.043.019c.18.088.364.171.544.253a14.006 14.006 0 00.57.234c.067.023.129.049.192.069.136.051.279.097.413.144l.187.06c.195.06.392.139.597.172 10.56 1.751 13.005-6.383 13.005-6.383-2.201 3.168-6.461 4.677-11.001 3.499a9.85 9.85 0 01-.673-.195l.076.022c-.064-.017-.12-.037-.181-.056-.139-.048-.281-.095-.416-.145l-.192-.072c-.149-.06-.301-.116-.447-.18-.045-.02-.087-.033-.121-.053-.187-.084-.375-.167-.556-.256l-.275-.143-.159-.08c-.123-.064-.236-.131-.353-.2a.952.952 0 01-.086-.047l.003.002c-.141-.088-.288-.173-.423-.264-.045-.025-.087-.056-.129-.083l-.277-.181c-.192-.133-.38-.277-.569-.416-.043-.039-.084-.071-.125-.105-1.996-1.569-3.571-3.715-4.317-6.144-.787-2.525-.613-5.357.745-7.656zm7.385-2.562c-1.211 1.776-1.327 3.981-.493 5.94.885 2.08 2.696 3.713 4.805 4.487.087.033.171.061.26.093l.117.036c.123.039.247.084.373.112 5.835 1.125 7.413-2.996 7.839-3.601-1.389 1.995-3.719 2.473-6.576 1.779a6.317 6.317 0 01-.732-.228l.044.015a8.2 8.2 0 01-.873-.361l.05.022a8.696 8.696 0 01-1.462-.896l.021.016c-2.56-1.939-4.145-5.64-2.476-8.655z"/></symbol><symbol id="icon-javascript" viewBox="0 0 32 32"><path fill="var(--color5, #f7df1e)" d="M0 0h32v32H0zm29.379 24.368c-.233-1.46-1.184-2.687-4.004-3.831-.981-.46-2.072-.78-2.396-1.52-.121-.44-.14-.68-.061-.94.2-.861 1.22-1.12 2.02-.88.52.16 1 .56 1.301 1.2 1.379-.901 1.379-.901 2.34-1.5-.36-.56-.539-.801-.781-1.04-.84-.94-1.959-1.42-3.779-1.379l-.94.119c-.901.22-1.76.7-2.28 1.34-1.52 1.721-1.081 4.721.759 5.961 1.82 1.36 4.481 1.659 4.821 2.94.32 1.56-1.16 2.06-2.621 1.88-1.081-.24-1.68-.781-2.34-1.781l-2.44 1.401c.28.64.6.919 1.08 1.479 2.32 2.341 8.12 2.221 9.161-1.339.039-.12.32-.94.099-2.2zm-11.978-9.66h-2.997c0 2.584-.012 5.152-.012 7.74 0 1.643.084 3.151-.184 3.615-.44.919-1.573.801-2.088.64-.528-.261-.796-.621-1.107-1.14-.084-.14-.147-.261-.169-.261l-2.433 1.5c.407.84 1 1.563 1.765 2.023 1.14.68 2.672.9 4.276.54 1.044-.301 1.944-.921 2.415-1.881.68-1.24.536-2.76.529-4.461.016-2.739 0-5.479 0-8.239z"/></symbol><symbol id="icon-vue-dot-js" viewBox="0 0 32 32"><path fill="var(--color6, #4fc08d)" d="M32 2.147H18.747L16 6.88l-2.747-4.733H0l16 27.707zM16 18.773l-9.12-15.8h5.907L16 8.546l3.213-5.573h5.907z"/></symbol><symbol id="icon-diamonds" viewBox="0 0 32 32"><path d="M16 0L6 16l10 16 10-16z"/></symbol><symbol id="icon-display" viewBox="0 0 32 32"><path d="M0 2v20h32V2H0zm30 18H2V4h28v16zm-9 4H11l-1 4-2 2h16l-2-2z"/></symbol><symbol id="icon-mobile2" viewBox="0 0 32 32"><path d="M24 0H6C4.9 0 4 .9 4 2v28c0 1.1.9 2 2 2h18c1.1 0 2-.9 2-2V2c0-1.1-.9-2-2-2zm-9 30.556a1.556 1.556 0 110-3.113 1.556 1.556 0 010 3.113zM24 26H6V4h18v22z"/></symbol><symbol id="icon-search" viewBox="0 0 32 32"><path d="M31.008 27.231l-7.58-6.447c-.784-.705-1.622-1.029-2.299-.998a11.954 11.954 0 002.87-7.787c0-6.627-5.373-12-12-12s-12 5.373-12 12 5.373 12 12 12c2.972 0 5.691-1.081 7.787-2.87-.031.677.293 1.515.998 2.299l6.447 7.58c1.104 1.226 2.907 1.33 4.007.23s.997-2.903-.23-4.007zM12 20a8 8 0 110-16 8 8 0 010 16z"/></symbol><symbol id="icon-star-empty" viewBox="0 0 32 32"><path d="M32 12.408l-11.056-1.607L16 .783l-4.944 10.018L0 12.408l8 7.798-1.889 11.011L16 26.018l9.889 5.199L24 20.206l8-7.798zM16 23.547l-6.983 3.671 1.334-7.776-5.65-5.507 7.808-1.134 3.492-7.075 3.492 7.075 7.807 1.134-5.65 5.507 1.334 7.776-6.983-3.671z"/></symbol><symbol id="icon-star-half" viewBox="0 0 32 32"><path d="M32 12.408l-11.056-1.607L16 .783l-4.944 10.018L0 12.408l8 7.798-1.889 11.011L16 26.018l9.889 5.199L24 20.206l8-7.798zM16 23.547l-.029.015L16 5.725l3.492 7.075 7.807 1.134-5.65 5.507 1.334 7.776L16 23.546z"/></symbol><symbol id="icon-star-full" viewBox="0 0 32 32"><path d="M32 12.408l-11.056-1.607L16 .783l-4.944 10.018L0 12.408l8 7.798-1.889 11.011L16 26.018l9.889 5.199L24 20.206l8-7.798z"/></symbol><symbol id="icon-checkmark" viewBox="0 0 32 32"><path d="M27 4L12 19l-7-7-5 5 12 12L32 9z"/></symbol><symbol id="icon-play2" viewBox="0 0 32 32"><path d="M16 0C7.163 0 0 7.163 0 16s7.163 16 16 16 16-7.163 16-16S24.837 0 16 0zm0 29C8.82 29 3 23.18 3 16S8.82 3 16 3s13 5.82 13 13-5.82 13-13 13zM12 9l12 7-12 7z"/></symbol><symbol id="icon-pause" viewBox="0 0 32 32"><path d="M16 0C7.163 0 0 7.163 0 16s7.163 16 16 16 16-7.163 16-16S24.837 0 16 0zm0 29C8.82 29 3 23.18 3 16S8.82 3 16 3s13 5.82 13 13-5.82 13-13 13zm-6-19h4v12h-4zm8 0h4v12h-4z"/></symbol><symbol id="icon-arrow-up2" viewBox="0 0 32 32"><path d="M27.414 12.586l-10-10a2 2 0 00-2.828 0l-10 10a2 2 0 102.828 2.828L14 8.828V28a2 2 0 104 0V8.828l6.586 6.586c.39.39.902.586 1.414.586s1.024-.195 1.414-.586a2 2 0 000-2.828z"/></symbol><symbol id="icon-arrow-right2" viewBox="0 0 32 32"><path d="M19.414 27.414l10-10a2 2 0 000-2.828l-10-10a2 2 0 10-2.828 2.828L23.172 14H4a2 2 0 100 4h19.172l-6.586 6.586c-.39.39-.586.902-.586 1.414s.195 1.024.586 1.414a2 2 0 002.828 0z"/></symbol><symbol id="icon-arrow-down2" viewBox="0 0 32 32"><path d="M27.414 19.414l-10 10a2 2 0 01-2.828 0l-10-10a2 2 0 112.828-2.828L14 23.172V4a2 2 0 114 0v19.172l6.586-6.586c.39-.39.902-.586 1.414-.586s1.024.195 1.414.586a2 2 0 010 2.828z"/></symbol><symbol id="icon-arrow-left2" viewBox="0 0 32 32"><path d="M12.586 27.414l-10-10a2 2 0 010-2.828l10-10a2 2 0 112.828 2.828L8.828 14H28a2 2 0 110 4H8.828l6.586 6.586c.39.39.586.902.586 1.414s-.195 1.024-.586 1.414a2 2 0 01-2.828 0z"/></symbol><symbol id="icon-google2" viewBox="0 0 32 32"><path d="M29 0H3C1.35 0 0 1.35 0 3v26c0 1.65 1.35 3 3 3h26c1.65 0 3-1.35 3-3V3c0-1.65-1.35-3-3-3zM16.238 28c-6.631 0-12-5.369-12-12s5.369-12 12-12c3.238 0 5.95 1.181 8.037 3.138l-3.256 3.138c-.894-.856-2.45-1.85-4.781-1.85-4.1 0-7.438 3.394-7.438 7.575s3.344 7.575 7.438 7.575c4.75 0 6.531-3.413 6.806-5.175h-6.806v-4.113h11.331c.1.6.188 1.2.188 1.988.006 6.856-4.588 11.725-11.519 11.725z"/></symbol><symbol id="icon-facebook" viewBox="0 0 32 32"><path d="M19 6h5V0h-5c-3.86 0-7 3.14-7 7v3H8v6h4v16h6V16h5l1-6h-6V7c0-.542.458-1 1-1z"/></symbol><symbol id="icon-instagram" viewBox="0 0 32 32"><path d="M16 2.881c4.275 0 4.781.019 6.462.094 1.563.069 2.406.331 2.969.55a4.952 4.952 0 011.837 1.194 5.015 5.015 0 011.2 1.838c.219.563.481 1.412.55 2.969.075 1.688.094 2.194.094 6.463s-.019 4.781-.094 6.463c-.069 1.563-.331 2.406-.55 2.969a4.94 4.94 0 01-1.194 1.837 5.02 5.02 0 01-1.837 1.2c-.563.219-1.413.481-2.969.55-1.688.075-2.194.094-6.463.094s-4.781-.019-6.463-.094c-1.563-.069-2.406-.331-2.969-.55a4.952 4.952 0 01-1.838-1.194 5.02 5.02 0 01-1.2-1.837c-.219-.563-.481-1.413-.55-2.969-.075-1.688-.094-2.194-.094-6.463s.019-4.781.094-6.463c.069-1.563.331-2.406.55-2.969a4.964 4.964 0 011.194-1.838 5.015 5.015 0 011.838-1.2c.563-.219 1.412-.481 2.969-.55 1.681-.075 2.188-.094 6.463-.094zM16 0c-4.344 0-4.887.019-6.594.094-1.7.075-2.869.35-3.881.744-1.056.412-1.95.956-2.837 1.85a7.833 7.833 0 00-1.85 2.831C.444 6.538.169 7.7.094 9.4.019 11.113 0 11.656 0 16s.019 4.887.094 6.594c.075 1.7.35 2.869.744 3.881.413 1.056.956 1.95 1.85 2.837a7.82 7.82 0 002.831 1.844c1.019.394 2.181.669 3.881.744 1.706.075 2.25.094 6.594.094s4.888-.019 6.594-.094c1.7-.075 2.869-.35 3.881-.744 1.05-.406 1.944-.956 2.831-1.844s1.438-1.781 1.844-2.831c.394-1.019.669-2.181.744-3.881.075-1.706.094-2.25.094-6.594s-.019-4.887-.094-6.594c-.075-1.7-.35-2.869-.744-3.881a7.506 7.506 0 00-1.831-2.844A7.82 7.82 0 0026.482.843C25.463.449 24.301.174 22.601.099c-1.712-.081-2.256-.1-6.6-.1z"/><path d="M16 7.781c-4.537 0-8.219 3.681-8.219 8.219s3.681 8.219 8.219 8.219 8.219-3.681 8.219-8.219A8.221 8.221 0 0016 7.781zm0 13.55a5.331 5.331 0 110-10.663 5.331 5.331 0 010 10.663zM26.462 7.456a1.919 1.919 0 11-3.838 0 1.919 1.919 0 013.838 0z"/></symbol><symbol id="icon-twitter" viewBox="0 0 32 32"><path d="M32 7.075a12.941 12.941 0 01-3.769 1.031 6.601 6.601 0 002.887-3.631 13.21 13.21 0 01-4.169 1.594A6.565 6.565 0 0022.155 4a6.563 6.563 0 00-6.563 6.563c0 .512.056 1.012.169 1.494A18.635 18.635 0 012.23 5.195a6.56 6.56 0 00-.887 3.3 6.557 6.557 0 002.919 5.463 6.565 6.565 0 01-2.975-.819v.081a6.565 6.565 0 005.269 6.437 6.574 6.574 0 01-2.968.112 6.588 6.588 0 006.131 4.563 13.17 13.17 0 01-9.725 2.719 18.568 18.568 0 0010.069 2.95c12.075 0 18.681-10.006 18.681-18.681 0-.287-.006-.569-.019-.85A13.216 13.216 0 0032 7.076z"/></symbol><symbol id="icon-github" viewBox="0 0 32 32"><path d="M16 .395c-8.836 0-16 7.163-16 16 0 7.069 4.585 13.067 10.942 15.182.8.148 1.094-.347 1.094-.77 0-.381-.015-1.642-.022-2.979-4.452.968-5.391-1.888-5.391-1.888-.728-1.849-1.776-2.341-1.776-2.341-1.452-.993.11-.973.11-.973 1.606.113 2.452 1.649 2.452 1.649 1.427 2.446 3.743 1.739 4.656 1.33.143-1.034.558-1.74 1.016-2.14-3.554-.404-7.29-1.777-7.29-7.907 0-1.747.625-3.174 1.649-4.295-.166-.403-.714-2.03.155-4.234 0 0 1.344-.43 4.401 1.64a15.353 15.353 0 014.005-.539c1.359.006 2.729.184 4.008.539 3.054-2.07 4.395-1.64 4.395-1.64.871 2.204.323 3.831.157 4.234 1.026 1.12 1.647 2.548 1.647 4.295 0 6.145-3.743 7.498-7.306 7.895.574.497 1.085 1.47 1.085 2.963 0 2.141-.019 3.864-.019 4.391 0 .426.288.925 1.099.768C27.421 29.457 32 23.462 32 16.395c0-8.837-7.164-16-16-16z"/></symbol><symbol id="icon-wordpress" viewBox="0 0 32 32"><path d="M4 16c0 4.626 2.76 8.624 6.763 10.518L5.039 11.244A11.381 11.381 0 004 16zm20.101-.59c0-1.445-.533-2.445-.989-3.223-.608-.963-1.179-1.778-1.179-2.741 0-1.074.836-2.074 2.015-2.074.053 0 .104.006.155.009A12.134 12.134 0 0016 4.312c-4.192 0-7.881 2.095-10.026 5.268.282.009.547.014.772.014 1.255 0 3.198-.149 3.198-.149.647-.037.723.889.077.963 0 0-.65.074-1.373.111l4.37 12.66 2.626-7.671-1.869-4.989c-.646-.037-1.259-.111-1.259-.111-.647-.037-.571-1 .076-.963 0 0 1.981.149 3.16.149 1.255 0 3.198-.149 3.198-.149.647-.037.723.889.076.963 0 0-.651.074-1.373.111l4.337 12.563 1.197-3.895c.518-1.617.913-2.778.913-3.778zm-7.89 1.612L12.61 27.211a12.29 12.29 0 007.375-.187 1.028 1.028 0 01-.086-.161l-3.688-9.842zm10.319-6.629c.052.372.081.771.081 1.202 0 1.185-.228 2.519-.913 4.186l-3.665 10.321C25.601 24.076 28 20.312 28 16c0-2.032-.533-3.943-1.47-5.607zM16 0C7.163 0 0 7.163 0 16s7.163 16 16 16 16-7.163 16-16S24.837 0 16 0zm0 30C8.268 30 2 23.732 2 16S8.268 2 16 2s14 6.268 14 14-6.268 14-14 14z"/></symbol><symbol id="icon-tux" viewBox="0 0 32 32"><path d="M17.739 23.029c-2.561 1.191-4.942 1.179-6.542 1.063-1.908-.138-3.442-.66-4.117-1.117a.909.909 0 10-1.019 1.505c1.084.734 3.002 1.28 5.005 1.424.34.024.712.04 1.114.04 1.743 0 3.957-.166 6.326-1.268a.91.91 0 00-.767-1.648zm10.103-1.347c.087-7.896.899-22.819-14.218-21.613C-1.301 1.27 2.656 17.037 2.434 22.317 2.237 25.11 1.31 28.525 0 32h4.034c.415-1.473.72-2.929.851-4.317.243.17.503.334.781.491.452.266.84.62 1.251.995.961.876 2.05 1.868 4.179 1.992.143.008.287.012.427.012 2.153 0 3.625-.942 4.809-1.699.567-.363 1.057-.676 1.518-.827 1.31-.41 2.454-1.072 3.309-1.914a5.64 5.64 0 00.374-.405c.476 1.746 1.129 3.711 1.853 5.672H32c-2.068-3.195-4.201-6.324-4.158-10.318zM3.878 17.386v-.001c-.148-2.577 1.085-4.745 2.754-4.842s3.142 1.913 3.291 4.49v.001c.008.139.011.276.012.413a6.46 6.46 0 00-1.434.551l-.005-.057v-.001c-.143-1.463-.924-2.567-1.745-2.467s-1.371 1.367-1.228 2.83v.001c.062.638.246 1.207.501 1.639-.064.05-.243.182-.45.333l-.572.42c-.621-.815-1.047-1.987-1.123-3.309zm16.911 6.37c-.059 1.362-1.841 2.643-3.487 3.158l-.009.003c-.684.222-1.295.613-1.941 1.026-1.085.695-2.208 1.413-3.829 1.413-.106 0-.215-.003-.323-.009-1.485-.087-2.179-.72-3.059-1.521-.464-.423-.943-.86-1.562-1.223l-.013-.008c-1.335-.753-2.163-1.69-2.216-2.506-.026-.406.154-.757.537-1.044.832-.624 1.39-1.032 1.759-1.302.41-.3.533-.39.625-.477.066-.062.136-.131.213-.205.764-.743 2.043-1.986 4.005-1.986 1.2 0 2.528.462 3.943 1.372.666.434 1.246.634 1.981.887.505.174 1.077.372 1.843.7l.012.005c.715.294 1.559.83 1.521 1.717zm-.394-3.2a5.876 5.876 0 00-.43-.196 25.213 25.213 0 00-1.704-.656 4.168 4.168 0 00.426-1.789v-.001c.035-1.637-.79-2.966-1.844-2.968s-1.936 1.322-1.971 2.959v.001l-.001.16a9.182 9.182 0 00-1.911-.649 10.966 10.966 0 01-.008-.185v-.002c-.061-2.982 1.769-5.45 4.086-5.513s4.245 2.303 4.305 5.285v.002c.027 1.348-.333 2.59-.949 3.552z"/></symbol><symbol id="icon-yelp" viewBox="0 0 32 32"><path d="M19.027 20.421c-.54.545-.083 1.535-.083 1.535l4.065 6.788s.668.895 1.246.895c.581 0 1.155-.477 1.155-.477l3.214-4.594s.324-.58.331-1.087c.012-.722-1.077-.92-1.077-.92l-7.609-2.444s-.746-.198-1.242.303zM18.642 17c.389.66 1.463.468 1.463.468l7.592-2.219s1.035-.421 1.182-.982c.145-.561-.171-1.238-.171-1.238L25.08 8.755s-.314-.54-.967-.595c-.719-.061-1.162.809-1.162.809l-4.29 6.75s-.379.672-.02 1.28zm-3.587-2.632c.894-.22 1.036-1.519 1.036-1.519L16.03 2.041S15.895.708 15.296.346c-.94-.57-1.218-.272-1.487-.233L7.506 2.455s-.617.204-.939.719c-.459.73.466 1.798.466 1.798l6.551 8.93s.647.669 1.47.465zm-1.557 4.374c.023-.834-1.001-1.334-1.001-1.334l-6.775-3.423s-1.004-.414-1.491-.126c-.373.221-.704.62-.737.973l-.441 5.432s-.066.941.178 1.369c.345.608 1.482.184 1.482.184l7.909-1.748c.307-.207.846-.225.876-1.328zm1.967 2.931c-.679-.349-1.491.373-1.491.373l-5.296 5.83s-.661.892-.493 1.439c.158.513.42.768.791.948l5.319 1.679s.645.134 1.133-.008c.693-.201.565-1.286.565-1.286l.12-7.894s-.027-.76-.648-1.082z"/></symbol><symbol id="icon-html-five" viewBox="0 0 32 32"><path d="M1.892 0l2.567 28.801L15.983 32l11.554-3.204L30.109 0H1.893zM24.52 9.42H11.003l.322 3.617h12.874l-.97 10.844-7.245 2.008-7.237-2.008-.495-5.547h3.547l.252 2.82 3.933 1.06.009-.002 3.935-1.062.408-4.58H8.094L7.141 5.889h17.694l-.316 3.532z"/></symbol><symbol id="icon-css3" viewBox="0 0 32 32"><path d="M4.762 1.516L3.688 6.889h21.867l-.684 3.47H2.99l-1.059 5.372h21.865l-1.219 6.127-8.813 2.919-7.638-2.919.523-2.658H1.277l-1.278 6.448 12.632 4.834 14.563-4.834 4.805-24.133z"/></symbol><symbol id="icon-svg" viewBox="0 0 32 32"><path d="M29 13c-.888 0-1.686.386-2.236 1h-5.936l4.197-4.197a3 3 0 10-2.829-2.829l-4.197 4.197V5.235a3 3 0 10-4 0v5.936L9.802 6.974a3 3 0 10-2.829 2.829L11.17 14H5.234a3 3 0 100 4h5.936l-4.197 4.197a3 3 0 102.829 2.829l4.197-4.197v5.936a3 3 0 104-.001v-5.936l4.197 4.197a3 3 0 102.829-2.829l-4.197-4.197h5.936a3 3 0 102.235-5z"/></symbol></defs></svg>