<svg version="1.0" xmlns="http://www.w3.org/2000/svg" width="1706.667" height="1066.667" viewBox="0 0 1280 800"><path d="M1176.6 63.5c-5.4 1.9-10.6 4.1-11.6 5-2.6 2.4-29.3 14.8-43.4 20.1-7 2.7-13.8 5.9-15 7.2-1.1 1.2-5.1 4.8-8.9 7.9l-6.7 5.6-11.8.4c-14.3.5-25.9 2.8-47.3 9.4-14 4.3-68.2 24-77.4 28.1-1.6.8-10.9 6.6-20.5 12.9-27.3 18-48.1 30.6-65.3 39.4l-15.8 8.2-19.2-3.3c-10.6-1.8-22.8-3.3-27.3-3.4h-8.1l-10.9-9.6c-6-5.3-13.7-11.6-17-14l-6.2-4.4-6.4 2c-4.7 1.4-8.5 3.6-14.1 8.1l-7.6 6.2-1.1 7-1.2 7 10 20.6c14.8 30.7 14.7 30.2 8 34.6-2.4 1.5-8.2 5.6-12.9 9.1-9.7 7.1-25.5 15.2-73.9 37.9-75.3 35.3-336.7 165.7-387 193-80.3 43.5-87.7 47.8-121.1 71.2-17.3 12.1-53.1 36.8-79.6 55-42.2 29.1-65.6 45.5-68.7 48.4-.6.6-.6 1.3 0 1.9.6.6 11.6 4 24.5 7.6 21.7 6 25.3 6.7 48.4 9.4 16.2 1.9 34.8 3.3 53 4l28 1.1 25.5-3.2c55.1-6.8 97.2-19.8 155.4-48 18.2-8.9 33.6-16.5 34.1-16.9.6-.5 21-10.7 45.5-22.7 57.5-28.2 114.9-58 228.5-118.6 50.6-27 92.1-49.1 92.3-49.3.2-.1 1.5-4.3 2.8-9.3 1.5-5.2 4.4-12.4 7-17 4.2-7.4 5.1-8.3 11.1-11.5 3.6-1.9 7.1-3.2 7.8-3 2.2.9 10.5-4.5 17.5-11.2l6.5-6.3 7.8-.3 7.7-.3 5.3 9.5c5.9 10.8 15.1 22.3 23 29.2 5.3 4.6 5.4 4.6 15.3 5.5l9.9 1 6.6-4.3c6.5-4.1 6.7-4.4 9.2-11.7 1.6-4.7 2.2-7.9 1.6-8.8-.5-.8-2.5-5.5-4.5-10.5l-3.5-9.2 2.5-2.5c3.3-3.3 7.6-12 12.1-24.7 2.1-5.8 5.9-16.2 8.6-23.1l4.9-12.6 16.3-6.1c8.9-3.3 19.8-7 24.2-8.1 9-2.3 40.2-7.7 66.5-11.6 9.6-1.4 18.7-2.8 20.3-3.1 1.5-.3 10.5-6.2 20-13.2 23.7-17.4 29.8-20.9 53-30.1 25.6-10.2 56.3-18 85.2-21.7 28.3-3.6 47.6-6.4 51.3-7.6 4-1.2 4.9-2.9 6.7-12.2 2.2-11.4 5.2-18.2 10.6-24.2l4.9-5.4v-8.3c0-18.7-7.9-47-19.3-69-4.4-8.7-7.2-11.2-16.8-15.6-3.6-1.6-10.6-6.1-15.5-10-15.3-12.1-18.7-12.9-33.8-7.6zm57.9 72.5c-.9 1.8-1.9 3-2.1 2.7-.3-.3.2-1.9 1.1-3.7.9-1.8 1.9-3 2.1-2.7.3.3-.2 1.9-1.1 3.7zm-49.6 2.9c-1.2 3.3-3.9 6.2-3.9 4.2 0-1.9 2.9-7.1 4-7.1.5 0 .5 1.2-.1 2.9zM1054 187c0 2.1-3.1 7-5.1 8.1-1.9 1-2 .9-1.4-1.3 1.5-4.8 6.5-10 6.5-6.8zm-282.2 9.7c.7 6.8-5.6 14.4-12.1 14.7-2.9.1-3.2-.2-3.5-2.9-.4-4.4 3.6-11.5 7.8-13.7 5-2.6 7.4-2 7.8 1.9zm121.8 54.2c-1.4 2.7-4.3 5.1-6 5.1-1.9 0 0-4.8 3.1-7.9 3-2.9 3.8-3.3 4.1-1.9.2.9-.4 3-1.2 4.7zm-32.7 145c-.9 4.1-6.3 9.7-10.4 10.7-3.4.8-3.9.2-3.1-4.1.9-4.5 5.9-10.3 10-11.3 3.8-1.1 4.6-.1 3.5 4.7z" fill="#e91e63"/></svg>