<svg xmlns="http://www.w3.org/2000/svg" viewBox="0 0 146.78 72.14"><g data-name="レイヤー 2"><g data-name="レイヤー 3"><path d="M48.66 37.94a51.39 51.39 0 006.55.57 16.75 16.75 0 014.67.36 43.2 43.2 0 01.49-5.09c.17-.9 1.23-4.31.74-5.05-.08-.14-.18-.27-.27-.41-3.33-4.77-8.16-8.6-12.91-11.86a105.39 105.39 0 00-15.38-8.62c-3.46-1.59-7-3-10.54-4.36Q19 2.37 16 1.37C14.67.94 11.69-.52 10.35.4c-.76.53-1.11 2.4-1.43 3.22-1 2.48-1.92 5-2.83 7.46-1.85 5.08-3.52 10.22-4.91 15.44-2.4 9-.56 18.64.45 27.75.4 3.55.8 7.09 1.22 10.64.21 1.75 0 4.77.9 6.3.71 1.19 2.09 1 3.29.8 2.49-.33 5-.79 7.47-1.2 6.28-1 12.55-2.19 18.78-3.51s13.14-2.38 18.84-5.21c0 0 5.07-2.49 7.42-6.07 0-1.14.16-2.35.11-3.23-.07-1.31-.1-2.61-.1-3.94v-8.9c-4-.53-8.17.61-12.2.42-4.85-.23-9.69.22-14.53.17-.42 0-2.44.18-2.59-.35 0-.13 6.74-.54 7.22-.55a78.23 78.23 0 0010.37-.84 10.06 10.06 0 01-2-.43c-.89-.13-1.77-.28-2.66-.45-2.12-.41-4.21-1-6.32-1.41-1.79-.34-3.6-.5-5.13-1.64a33.67 33.67 0 014.05.38c4.41.68 8.54 2.07 12.89 2.69zm96.94-11.52c-1.39-5.22-3.07-10.37-4.91-15.45-.91-2.49-1.86-5-2.83-7.45-.33-.82-.67-2.7-1.43-3.22-1.34-.92-4.32.54-5.61 1-2 .66-4 1.37-6.06 2.11-3.56 1.32-7.08 2.77-10.53 4.36a104.81 104.81 0 00-15.38 8.61c-4.75 3.27-9.58 7.09-12.91 11.87-.1.13-.19.27-.28.4-.49.75.58 4.15.74 5.05a41.18 41.18 0 01.5 5.09 17.13 17.13 0 014.67-.35 51.09 51.09 0 006.54-.58c4.37-.62 8.49-2 12.8-2.68a30.18 30.18 0 014-.38c-1.52 1.13-3.33 1.29-5.12 1.63-2.11.4-4.21 1-6.32 1.41-.89.17-1.77.32-2.66.46a10.16 10.16 0 01-2 .42 74.86 74.86 0 0010.36.84c.49 0 7.26.42 7.23.56-.15.52-2.17.34-2.59.34-4.84.06-9.68-.4-14.53-.17-4 .2-8.2-.95-12.2-.41v8.9c0 1.32 0 2.63-.11 3.94 0 .88.11 2.08.11 3.23 2.5 3.54 7.57 6.05 7.57 6.05 5.7 2.83 12.67 3.91 18.84 5.21s12.49 2.45 18.78 3.5c2.48.42 5 .87 7.47 1.21 1.19.16 2.58.39 3.29-.81.91-1.53.69-4.54.9-6.29.42-3.55.82-7.1 1.22-10.64 1-9.13 2.85-18.74.45-27.76z"/><path d="M85.83 35.52c-.21-2.33-.85-4.6-1-6.92-3-.79-7 .08-10 .56-4.27.67-8.59-1.55-12.75-.45-.21 2.31-.84 4.59-1 6.91-.36 4.15-.43 8.35-.59 12.49-.08 1.93-.07 3.92 0 5.84 0 .77 0 1.65.07 2.48.14.35.35.63.71.63 2.75-.19 5.51-.27 8.26-.43 2.41-.14 4.83-.59 7.21-.3a75 75 0 009 .63c.36 0 .57-.28.7-.64 0-.83 0-1.71.08-2.48.09-1.91.1-3.91 0-5.83-.26-4.15-.33-8.34-.69-12.49z"/></g></g></svg>