<svg xmlns="http://www.w3.org/2000/svg" width="32" height="32"><path fill="#0769ad" d="M2.045 7.832c-2.831 4.067-2.48 9.356-.316 13.675.049.105.104.205.157.305.031.069.065.133.103.199.017.037.041.076.063.111.035.069.072.136.108.203l.209.353c.039.065.076.129.12.195.073.125.16.249.236.375.035.052.067.104.105.156.148.232.284.425.428.612l-.015-.02c.104.143.208.281.32.42.036.051.076.101.113.152l.295.359c.036.041.072.089.111.132.131.157.269.311.408.465 0 .003.004.005.007.009.172.217.358.409.56.582l.006.005c.107.109.213.219.327.325l.135.129c.148.139.296.277.452.411.003 0 .004.003.007.004l.076.067c.136.119.273.237.413.347l.167.14c.113.091.231.177.347.267l.181.139c.124.093.256.185.383.276.047.033.093.067.141.097l.039.031.375.247.16.107c.196.125.391.244.584.361.056.028.112.059.164.091.144.083.293.167.439.244.08.045.163.084.245.125.1.056.204.111.311.167a.387.387 0 01.077.032l-.002-.001c.044.02.085.041.128.063.16.08.327.156.5.232.032.013.067.027.101.045.192.084.384.164.583.243.045.013.093.036.14.053.18.068.365.137.548.203l.067.024c.204.069.405.136.612.2.048.013.097.031.148.044.212.064.417.14.631.181 13.68 2.493 17.656-8.225 17.656-8.225-3.34 4.349-9.267 5.496-14.88 4.22-.208-.048-.416-.115-.625-.176a14.64 14.64 0 01-.882-.28l.126.039-.083-.032c-.181-.061-.356-.129-.533-.197a1.738 1.738 0 00-.132-.05l-.015-.004c-.196-.079-.387-.16-.576-.244-.041-.013-.076-.032-.117-.048a16.54 16.54 0 01-.665-.308l.184.081c-.049-.021-.093-.044-.141-.069a10.022 10.022 0 01-.373-.189 4.225 4.225 0 01-.276-.142l.027.014c-.151-.08-.301-.167-.452-.249-.045-.032-.097-.059-.149-.088a17.928 17.928 0 01-.668-.409l.084.05a2.925 2.925 0 01-.165-.111l.008.006a7.671 7.671 0 01-.44-.291l.024.017c-.047-.031-.089-.064-.137-.097-.17-.118-.298-.211-.424-.306l.032.023c-.056-.045-.116-.088-.176-.133-.117-.092-.236-.18-.353-.277l-.157-.125c-.174-.14-.319-.263-.461-.388l.016.013A.356.356 0 008.771 23l-.001-.001-.463-.421-.133-.125c-.109-.111-.221-.217-.333-.327l-.129-.133a12.33 12.33 0 01-.404-.421l-.008-.009-.02-.021a23.788 23.788 0 01-.417-.472c-.036-.041-.069-.085-.107-.129l-.301-.369a20.463 20.463 0 01-.4-.522l-.054-.075C2.888 15.724 1.761 9.858 4.253 5.046zm8.783-3.425c-2.052 2.945-1.936 6.884-.339 9.999.296.584.596 1.078.928 1.547l-.025-.038c.307.44.645.96 1.056 1.315a8.9 8.9 0 00.459.479l.12.12c.152.147.308.291.467.433l.02.017c.16.141.34.29.524.435l.028.021c.045.031.084.067.128.097.187.144.375.283.569.42l.02.012c.083.06.171.115.264.173.037.024.08.056.12.08.141.091.28.176.423.263.023.009.043.021.064.031.12.073.251.144.376.209.044.027.087.047.132.072.089.044.177.091.263.136l.043.019c.18.088.364.171.544.253a14.006 14.006 0 00.57.234c.067.023.129.049.192.069.136.051.279.097.413.144l.187.06c.195.06.392.139.597.172 10.56 1.751 13.005-6.383 13.005-6.383-2.201 3.168-6.461 4.677-11.001 3.499a9.85 9.85 0 01-.673-.195l.076.022c-.064-.017-.12-.037-.181-.056-.139-.048-.281-.095-.416-.145l-.192-.072c-.149-.06-.301-.116-.447-.18-.045-.02-.087-.033-.121-.053-.187-.084-.375-.167-.556-.256l-.275-.143-.159-.08c-.123-.064-.236-.131-.353-.2a.952.952 0 01-.086-.047l.003.002c-.141-.088-.288-.173-.423-.264-.045-.025-.087-.056-.129-.083l-.277-.181c-.192-.133-.38-.277-.569-.416-.043-.039-.084-.071-.125-.105-1.996-1.569-3.571-3.715-4.317-6.144-.787-2.525-.613-5.357.745-7.656zm7.385-2.562c-1.211 1.776-1.327 3.981-.493 5.94.885 2.08 2.696 3.713 4.805 4.487.087.033.171.061.26.093l.117.036c.123.039.247.084.373.112 5.835 1.125 7.413-2.996 7.839-3.601-1.389 1.995-3.719 2.473-6.576 1.779a6.317 6.317 0 01-.732-.228l.044.015a8.2 8.2 0 01-.873-.361l.05.022a8.696 8.696 0 01-1.462-.896l.021.016c-2.56-1.939-4.145-5.64-2.476-8.655z"/></svg>