<?xml version="1.0" standalone="no"?>
<!DOCTYPE svg PUBLIC "-//W3C//DTD SVG 20010904//EN"
 "http://www.w3.org/TR/2001/REC-SVG-20010904/DTD/svg10.dtd">
<svg version="1.0" xmlns="http://www.w3.org/2000/svg"
 width="1280.000000pt" height="800.000000pt" viewBox="0 0 1280.000000 800.000000"
 preserveAspectRatio="xMidYMid meet">
<metadata>
Created by potrace 1.15, written by Peter Selinger 2001-2017
</metadata>
<g transform="translate(0.000000,800.000000) scale(0.100000,-0.100000)"
fill="#e91e63" stroke="none">
<path d="M11766 7365 c-54 -19 -106 -41 -116 -50 -26 -24 -293 -148 -434 -201
-70 -27 -138 -59 -150 -72 -11 -12 -51 -48 -89 -79 l-67 -56 -118 -4 c-143 -5
-259 -28 -473 -94 -140 -43 -682 -240 -774 -281 -16 -8 -109 -66 -205 -129
-273 -180 -481 -306 -653 -394 l-158 -82 -192 33 c-106 18 -228 33 -273 34
l-81 0 -109 96 c-60 53 -137 116 -170 140 l-62 44 -64 -20 c-47 -14 -85 -36
-141 -81 l-76 -62 -11 -70 -12 -70 100 -206 c148 -307 147 -302 80 -346 -24
-15 -82 -56 -129 -91 -97 -71 -255 -152 -739 -379 -753 -353 -3367 -1657
-3870 -1930 -803 -435 -877 -478 -1211 -712 -173 -121 -531 -368 -796 -550
-422 -291 -656 -455 -687 -484 -6 -6 -6 -13 0 -19 6 -6 116 -40 245 -76 217
-60 253 -67 484 -94 162 -19 348 -33 530 -40 l280 -11 255 32 c551 68 972 198
1554 480 182 89 336 165 341 169 6 5 210 107 455 227 575 282 1149 580 2285
1186 506 270 921 491 923 493 2 1 15 43 28 93 15 52 44 124 70 170 42 74 51
83 111 115 36 19 71 32 78 30 22 -9 105 45 175 112 l65 63 78 3 77 3 53 -95
c59 -108 151 -223 230 -292 53 -46 54 -46 153 -55 l99 -10 66 43 c65 41 67 44
92 117 16 47 22 79 16 88 -5 8 -25 55 -45 105 l-35 92 25 25 c33 33 76 120
121 247 21 58 59 162 86 231 l49 126 163 61 c89 33 198 70 242 81 90 23 402
77 665 116 96 14 187 28 203 31 15 3 105 62 200 132 237 174 298 209 530 301
256 102 563 180 852 217 283 36 476 64 513 76 40 12 49 29 67 122 22 114 52
182 106 242 l49 54 0 83 c0 187 -79 470 -193 690 -44 87 -72 112 -168 156 -36
16 -106 61 -155 100 -153 121 -187 129 -338 76z m579 -725 c-9 -18 -19 -30
-21 -27 -3 3 2 19 11 37 9 18 19 30 21 27 3 -3 -2 -19 -11 -37z m-496 -29
c-12 -33 -39 -62 -39 -42 0 19 29 71 40 71 5 0 5 -12 -1 -29z m-1309 -481 c0
-21 -31 -70 -51 -81 -19 -10 -20 -9 -14 13 15 48 65 100 65 68z m-2822 -97 c7
-68 -56 -144 -121 -147 -29 -1 -32 2 -35 29 -4 44 36 115 78 137 50 26 74 20
78 -19z m1218 -542 c-14 -27 -43 -51 -60 -51 -19 0 0 48 31 79 30 29 38 33 41
19 2 -9 -4 -30 -12 -47z m-327 -1450 c-9 -41 -63 -97 -104 -107 -34 -8 -39 -2
-31 41 9 45 59 103 100 113 38 11 46 1 35 -47z"/>
</g>
</svg>
